<svg id="Capa_1" enable-background="new 0 0 511.999 511.999" height="512" viewBox="0 0 511.999 511.999" width="512" xmlns="http://www.w3.org/2000/svg"><g><g><path clip-rule="evenodd" d="m124.373 153.58h-17.206c-7.994 0-14.513 6.463-14.513 14.457v8.051c0 15.534 15.449 23.953 31.351 24.095h3.345c9.835-14.74 7.681-31.352-2.977-46.603z" fill="#ffbc85" fill-rule="evenodd"/></g><g><path clip-rule="evenodd" d="m171.966 95.78c-3.742 28.574-37.332 30.218-47.594 38.127v47.51c0 6.038 1.02 12.388 2.976 18.766 6.265 20.722 21.94 42.067 41.924 56.581 7.455 5.414 15.506 9.865 23.896 12.983 8.334 3.09 15.676 4.621 23.017 4.621 7.342 0 14.655-1.531 22.989-4.621 8.391-3.118 16.441-7.569 23.896-12.983 19.984-14.514 35.66-35.859 41.924-56.581 1.956-6.378 3.005-12.728 3.005-18.766v-47.51c-25.736-54.115-97.396-9.014-136.033-38.127z" fill="#ffe5c1" fill-rule="evenodd"/></g><g><path clip-rule="evenodd" d="m169.274 280.321-64.63 19.928c-18.17 5.584-29.225 18.823-35.008 34.584l38.353 98.393c160.725 41.415 264.104 49.608 210.048-135.387-.057-.17.085-.368.113-.539l-55.077-16.98h-93.799z" fill="#3bc3a4" fill-rule="evenodd"/></g><g><path clip-rule="evenodd" d="m193.17 269.747c-8.391-3.118-16.441-7.569-23.896-12.983v23.557 6.293c0 42.124 93.799 42.124 93.799 0v-6.293-23.557c-7.455 5.414-15.506 9.865-23.896 12.983-8.334 3.09-15.647 4.621-22.989 4.621-7.343 0-14.684-1.531-23.018-4.621z" fill="#fed1a3" fill-rule="evenodd"/></g><g><path clip-rule="evenodd" d="m304.997 200.183h3.345c15.902-.142 31.351-8.561 31.351-24.095v-8.051c0-7.994-6.52-14.457-14.513-14.457h-17.178c-16.357 12.076-22.111 27.412-3.005 46.603z" fill="#ffbc85" fill-rule="evenodd"/></g><g><path clip-rule="evenodd" d="m126.952 414.29v-71.435c0-4.422-3.6-8.022-8.022-8.022h-49.294-10.687c-4.422 0-8.022 3.6-8.022 8.022v6.945 49.041 15.449c0 10.403 8.532 18.936 18.964 18.936h38.098c10.431 0 18.963-8.532 18.963-18.936z" fill="#dddaec" fill-rule="evenodd"/></g><g><path clip-rule="evenodd" d="m263.072 286.614c0 9.808-5.102 17.349-12.926 22.593 6.35 20.212 9.865 42.493 9.865 65.907 0 8.051-.425 15.988-1.219 23.727h38.523l20.721-101.001c.028-.17.085-.368.113-.539l-55.077-16.98z" fill="#00a887" fill-rule="evenodd"/></g><g><path clip-rule="evenodd" d="m102.291 342.855v71.435c0 10.403-8.532 18.936-18.964 18.936h24.661c10.432 0 18.964-8.533 18.964-18.936v-71.435c0-4.422-3.6-8.022-8.022-8.022h-24.661c4.422 0 8.022 3.6 8.022 8.022z" fill="#beb9dd" fill-rule="evenodd"/></g><g><path clip-rule="evenodd" d="m308.001 153.58c-7.398-15.563-18.567-22.905-31.691-26.193v40.933c0 6.066-2.551 12.388-4.479 18.794-6.293 20.694-21.969 42.067-41.953 56.581-7.455 5.386-15.506 9.837-23.896 12.955-8.306 3.09-15.647 4.621-22.989 4.621-2.636 0-5.244-.198-7.937-.595 5.783 3.657 11.849 6.747 18.113 9.071 8.334 3.09 15.676 4.621 23.017 4.621 7.342 0 14.655-1.531 22.989-4.621 8.391-3.118 16.441-7.569 23.896-12.983 19.984-14.514 35.66-35.859 41.924-56.581 1.956-6.378 3.005-12.728 3.005-18.766v-27.837z" fill="#fed1a3" fill-rule="evenodd"/></g><g><path clip-rule="evenodd" d="m124.373 153.58c10.261-7.909 43.852-9.553 47.594-38.099 5.754-13.947 5.272-51.11-8.674-66.588-33.846 5.953-48.387 32.117-43.88 66.644z" fill="#2b4d66" fill-rule="evenodd"/></g><g><path clip-rule="evenodd" d="m171.966 115.482c38.636 29.113 110.296-16.016 136.035 38.099 5.046-38.779 6.18-76.453-28.403-105.849-31.946-27.157-100.998-28.149-116.306 1.162-6.831 16.016-6.519 53.179 8.674 66.588z" fill="#375e7d" fill-rule="evenodd"/></g><g><path clip-rule="evenodd" d="m246.433 34.664c30.643 26.051 33.222 58.651 29.877 92.724 13.124 3.288 24.293 10.63 31.691 26.193 5.046-38.779 6.18-76.453-28.403-105.849-10.403-8.844-24.747-14.911-39.884-18.057 2.382 1.559 4.621 3.203 6.719 4.989z" fill="#2b4d66" fill-rule="evenodd"/></g><g><path clip-rule="evenodd" d="m169.274 276.806c7.455 5.414 15.506 9.865 23.896 12.983 8.334 3.09 15.676 4.621 23.017 4.621 7.342 0 14.655-1.531 22.989-4.621 13.748-5.103 10.97-8.107 10.97 9.638v9.78c7.824-5.244 12.926-12.785 12.926-22.593v-6.293-23.557c-7.455 5.414-15.506 9.865-23.896 12.983-8.334 3.09-15.647 4.621-22.989 4.621s-14.683-1.531-23.017-4.621c-6.265-2.324-12.331-5.414-18.113-9.071-1.956-1.219-3.883-2.551-5.783-3.912z" fill="#ffbc85" fill-rule="evenodd"/></g><g><path clip-rule="evenodd" d="m499.936 433.226h-487.872c-2.523 0-4.564 2.069-4.564 4.592v42.493c0 2.523 2.041 4.564 4.564 4.564h487.872c2.494 0 4.564-2.041 4.564-4.564v-42.493c-.001-2.522-2.07-4.592-4.564-4.592z" fill="#935d38" fill-rule="evenodd"/></g><g><path clip-rule="evenodd" d="m229.113 405.814v10.233c0 9.44 7.739 17.178 17.178 17.178h43.965l13.465-17.178-6.406-17.207h-61.257c-3.827.001-6.945 3.148-6.945 6.974z" fill="#a7a2d3" fill-rule="evenodd"/></g><g><path clip-rule="evenodd" d="m318.036 297.84-20.721 101.001-7.058 34.385h58.054 128.892l26.872-130.936c.255-1.332.397-2.608.425-3.884v-.454c-.113-10.063-7.937-17.632-15.761-17.632h-149.812c-11.168 0-18.652 7.796-20.778 16.98z" fill="#dddaec" fill-rule="evenodd"/></g><g><path clip-rule="evenodd" d="m443.583 280.321c1.502 10.545 2.296 21.459 2.296 32.628 0 47.227-14.287 89.861-37.276 120.277h68.599l26.872-130.936c.255-1.332.397-2.608.425-3.884v-.454c-.113-10.063-7.937-17.632-15.761-17.632h-45.155z" fill="#beb9dd" fill-rule="evenodd"/></g><g><path clip-rule="evenodd" d="m404.861 341.466c-10.12 0-18.765 7.994-19.304 17.83s7.228 17.83 17.376 17.83c10.12 0 18.765-7.994 19.276-17.83.539-9.836-7.228-17.83-17.348-17.83z" fill="#3bc3a4" fill-rule="evenodd"/></g><g><path clip-rule="evenodd" d="m453.617 437.819v42.493c0 2.523-2.041 4.564-4.564 4.564h50.882c2.494 0 4.564-2.041 4.564-4.564v-42.493c0-2.523-2.069-4.592-4.564-4.592h-22.734-28.091c2.495.028 4.507 2.097 4.507 4.592z" fill="#7f4d2a" fill-rule="evenodd"/></g><g><path d="m256.354 183.73c4.143 0 7.5-3.358 7.5-7.5v-7.172c0-4.142-3.357-7.5-7.5-7.5s-7.5 3.358-7.5 7.5v7.172c0 4.142 3.358 7.5 7.5 7.5z"/><path d="m178.515 161.558c-4.143 0-7.5 3.358-7.5 7.5v7.172c0 4.142 3.357 7.5 7.5 7.5s7.5-3.358 7.5-7.5v-7.172c0-4.142-3.358-7.5-7.5-7.5z"/><path d="m217.43 239.114h.024c7.596-.006 14.73-2.972 20.09-8.35 2.924-2.934 2.916-7.683-.019-10.606-2.936-2.924-7.685-2.916-10.606.019-2.528 2.537-5.894 3.935-9.477 3.938-.004 0-.008 0-.012 0-3.593 0-6.973-1.401-9.518-3.947-2.929-2.928-7.678-2.929-10.606 0-2.93 2.929-2.93 7.678-.001 10.606 5.38 5.378 12.525 8.34 20.125 8.34z"/><path d="m499.936 425.726h-13.538l25.023-121.926c1.645-8.003-.282-16.114-5.288-22.253-4.521-5.545-10.861-8.726-17.395-8.726h-62.22c-4.143 0-7.5 3.358-7.5 7.5s3.357 7.5 7.5 7.5h62.22c1.946 0 4.157 1.228 5.769 3.205 1.261 1.546 3.226 4.869 2.221 9.757l-25.643 124.944h-171.633l5.209-25.377c.002-.011.003-.022.005-.033l20.718-100.971c1.089-5.316 5.289-11.523 13.544-11.523h51.987c4.143 0 7.5-3.358 7.5-7.5s-3.357-7.5-7.5-7.5h-51.987c-11.035 0-20.399 5.878-25.294 15.24l-43.062-13.276v-14.317c18.037-13.997 32.56-33.231 39.838-52.846 18.599-.882 36.782-11.73 36.782-31.535v-8.051c0-12.107-9.875-21.957-22.013-21.957h-8.708c4.131-36.64 3.176-74.149-32.016-104.063-21.059-17.901-58.822-26.515-89.797-20.478-16.619 3.239-29.266 10.509-36.087 20.646-16.751 3.707-29.825 12.413-37.949 25.32-8.152 12.95-11.143 29.895-8.648 49.002l3.856 29.572h-8.665c-12.138 0-22.013 9.85-22.013 21.957v8.051c0 19.793 18.16 30.639 36.807 31.534 7.273 19.613 21.786 38.845 39.813 52.842v14.322l-59.332 18.294c-17.184 5.282-30.163 17.084-37.827 34.252h-5.664c-8.372 0-15.199 6.667-15.494 14.967h-17.019c-10.153 0-18.413 8.248-18.413 18.385v27.271c0 10.138 8.26 18.385 18.413 18.385h16.991v7.949c0 4.094.937 7.973 2.607 11.436h-33.97c-6.652.001-12.064 5.426-12.064 12.094v42.493c0 6.652 5.412 12.063 12.063 12.063h209.708c4.143 0 7.5-3.358 7.5-7.5s-3.357-7.5-7.5-7.5h-206.771v-36.648h481.999v36.648h-240.616c-4.143 0-7.5 3.358-7.5 7.5s3.357 7.5 7.5 7.5h243.553c6.651 0 12.063-5.412 12.063-12.063v-42.493c0-6.668-5.412-12.093-12.063-12.093zm-167.744-257.689v8.051c0 8.841-8.131 14.286-17.589 16.004.588-3.599.897-7.168.897-10.675v-20.337h9.679c3.868 0 7.013 3.121 7.013 6.957zm-134.663-131.774c5.672-1.106 11.654-1.634 17.729-1.634 22.23 0 45.672 7.077 59.483 18.817 26.453 22.486 30.088 50.222 27.899 79.72-18.407-17.583-45.221-16.219-69.46-14.993-21.632 1.098-42.069 2.127-56.424-8.482-11.548-10.513-12.588-43.228-6.687-57.549 4.095-7.586 13.827-13.222 27.46-15.879zm-44.846 23.423c-1.188 7.445-1.5 15.869-.785 24.127.755 8.709 3.339 23.895 11.973 34.052-3.241 12.351-14.656 17.483-29.065 22.749-1.504.55-2.957 1.081-4.35 1.614l-3.607-27.659c-3.547-27.176 5.781-46.57 25.834-54.883zm-52.53 116.402v-8.051c0-3.836 3.146-6.957 7.013-6.957h9.707v20.337c0 3.506.309 7.074.896 10.673-9.49-1.72-17.616-7.164-17.616-16.002zm31.72 5.329v-23.542c2.252-1.042 5.196-2.119 8.081-3.173 12.147-4.439 29.531-10.793 36.646-27.688 17.133 8.177 37.521 7.144 57.34 6.14 28.815-1.461 53.764-2.706 66.561 22.215v26.049c0 30.654-29.877 68.645-63.933 81.298-7.642 2.833-14.118 4.153-20.381 4.153-6.283 0-12.769-1.32-20.405-4.151-34.045-12.65-63.909-50.641-63.909-81.301zm58.689 95.363c9.363 3.472 17.506 5.088 25.625 5.088 8.099 0 16.232-1.617 25.601-5.09 4.697-1.745 9.303-3.902 13.784-6.386v16.222c0 15.817-19.82 24.093-39.399 24.093s-39.399-8.276-39.399-24.093v-16.223c4.482 2.485 9.09 4.643 13.788 6.389zm-83.708 30.636 55.146-17.004c1.2 10.746 7.502 19.999 18.076 26.331 9.653 5.78 22.473 8.964 36.097 8.964s26.443-3.184 36.097-8.964c10.575-6.332 16.876-15.585 18.076-26.332l39.086 12.05-18.237 88.879h-55.137c-7.965 0-14.444 6.493-14.444 14.473v10.233c0 3.434.707 6.705 1.979 9.679h-91.748c1.67-3.463 2.607-7.342 2.607-11.436v-71.435c0-8.559-6.963-15.522-15.522-15.522h-37.46c5.942-9.864 14.438-16.552 25.384-19.916zm-80.418 83.925c-1.85 0-3.413-1.55-3.413-3.385v-27.271c0-1.835 1.563-3.385 3.413-3.385h16.991v34.041zm43.455 34.385c-6.321 0-11.464-5.13-11.464-11.436v-71.435c0-.278.244-.522.522-.522h59.98c.278 0 .522.244.522.522v71.435c0 6.306-5.143 11.436-11.464 11.436zm166.722-9.678v-9.707h51.504l-3.743 18.244-.234 1.141h-37.849c-5.336 0-9.678-4.341-9.678-9.678z"/><path d="m378.069 358.887c-.37 6.749 1.959 13.141 6.56 18 4.725 4.991 11.226 7.74 18.305 7.74 14.046 0 26.053-11.189 26.764-24.92.37-6.751-1.96-13.146-6.562-18.008-4.721-4.987-11.211-7.733-18.273-7.733-14.023 0-26.043 11.18-26.794 24.921zm14.978.819c.318-5.822 5.729-10.74 11.814-10.74 2.9 0 5.521 1.082 7.381 3.045 1.74 1.838 2.62 4.28 2.477 6.897-.301 5.81-5.698 10.718-11.785 10.718-2.916 0-5.549-1.084-7.412-3.052-1.739-1.835-2.618-4.274-2.475-6.868z"/></g></g></svg>